# xmcd
#
# Track frame offsets: 
#        150
#        13508
#        28820
#        49003
#        64313
#        87196
#        101865
#        116826
#        137246
#        152028
#        170737
#        194019
#
# Disc length: 2871 seconds
#
# Revision: 4
# Processed by: cddbd v1.5.2PL0 Copyright (c) Steve Scherf et al.
# Submitted via: ExactAudioCopy v0.95a4
#
DISCID=ae0b350c
DTITLE=Dana Fuchs - Bliss Avenue
DYEAR=2013
DGENRE=Blues
TTITLE0=Bliss Avenue
TTITLE1=How Did Things Get This Way
TTITLE2=Handful Too Many
TTITLE3=Livin' On Sunday
TTITLE4=So Hard To Move
TTITLE5=Daddy's Little Girl
TTITLE6=Rodents In The Attic
TTITLE7=Baby Loves The Life
TTITLE8=Nothin' On My Mind
TTITLE9=Keep On Walkin'
TTITLE10=Vagabond Wind
TTITLE11=Long Long Game
EXTD=Year: 2013\n\n\n\n\n\n                                           
EXTD=        www.danafuchs.com
EXTT0=
EXTT1=
EXTT2=
EXTT3=
EXTT4=
EXTT5=
EXTT6=
EXTT7=
EXTT8=
EXTT9=
EXTT10=
EXTT11=
PLAYORDER=
